<svg width="36" height="36" viewBox="0 0 36 36" fill="none" xmlns="http://www.w3.org/2000/svg">
<path fill-rule="evenodd" clip-rule="evenodd" d="M30 1.5C32.4853 1.5 34.5 3.51472 34.5 6V30C34.5 32.4853 32.4853 34.5 30 34.5H6C3.51472 34.5 1.5 32.4853 1.5 30V6C1.5 3.51472 3.51472 1.5 6 1.5H30ZM30 4.5C30.8284 4.5 31.5 5.17158 31.5 6V30C31.5 30.8284 30.8284 31.5 30 31.5H22.5V20.9998H25.6143C26.2599 20.9998 26.833 20.5868 27.0373 19.9741L27.7018 17.9806C27.9447 17.2521 27.4024 16.4998 26.6346 16.4998H22.5V13.4999C22.5 12.7499 23.25 11.9999 24 11.9999H27C27.8284 11.9999 28.5 11.3283 28.5 10.4999V9.47089C28.5 8.98636 28.1905 8.55195 27.722 8.4283C25.7558 7.90942 24 7.90943 24 7.90943C20.25 7.90943 18 10.4999 18 12.7499V16.4998H15C14.1716 16.4998 13.5 17.1714 13.5 17.9998V19.4998C13.5 20.3283 14.1716 20.9998 15 20.9998H18V31.5H6C5.17158 31.5 4.5 30.8284 4.5 30V6C4.5 5.17158 5.17158 4.5 6 4.5H30Z" fill="#4F5665"/>
</svg>
