<svg width="36" height="36" viewBox="0 0 36 36" fill="none" xmlns="http://www.w3.org/2000/svg">
<path fill-rule="evenodd" clip-rule="evenodd" d="M18 27C22.9705 27 27 22.9705 27 18C27 13.0294 22.9705 9 18 9C13.0294 9 9 13.0294 9 18C9 22.9705 13.0294 27 18 27ZM18 24C21.3137 24 24 21.3137 24 18C24 14.6863 21.3137 12 18 12C14.6863 12 12 14.6863 12 18C12 21.3137 14.6863 24 18 24Z" fill="#4F5665"/>
<path d="M27 7.5C26.1716 7.5 25.5 8.17158 25.5 9C25.5 9.82842 26.1716 10.5 27 10.5C27.8284 10.5 28.5 9.82842 28.5 9C28.5 8.17158 27.8284 7.5 27 7.5Z" fill="#4F5665"/>
<path fill-rule="evenodd" clip-rule="evenodd" d="M2.48094 6.41409C1.5 8.33929 1.5 10.8595 1.5 15.9V20.1C1.5 25.1404 1.5 27.6607 2.48094 29.5858C3.3438 31.2793 4.72062 32.6562 6.41409 33.519C8.33929 34.5 10.8595 34.5 15.9 34.5H20.1C25.1404 34.5 27.6607 34.5 29.5858 33.519C31.2793 32.6562 32.6562 31.2793 33.519 29.5858C34.5 27.6607 34.5 25.1404 34.5 20.1V15.9C34.5 10.8595 34.5 8.33929 33.519 6.41409C32.6562 4.72062 31.2793 3.3438 29.5858 2.48094C27.6607 1.5 25.1404 1.5 20.1 1.5H15.9C10.8595 1.5 8.33929 1.5 6.41409 2.48094C4.72062 3.3438 3.3438 4.72062 2.48094 6.41409ZM20.1 4.5H15.9C13.3303 4.5 11.5834 4.50234 10.2331 4.61265C8.91786 4.72011 8.24526 4.91488 7.77606 5.15395C6.64708 5.7292 5.7292 6.64708 5.15395 7.77606C4.91488 8.24526 4.72011 8.91786 4.61265 10.2331C4.50234 11.5834 4.5 13.3303 4.5 15.9V20.1C4.5 22.6698 4.50234 24.4165 4.61265 25.7668C4.72011 27.0822 4.91488 27.7548 5.15395 28.224C5.7292 29.3529 6.64708 30.2707 7.77606 30.846C8.24526 31.0851 8.91786 31.2799 10.2331 31.3873C11.5834 31.4976 13.3303 31.5 15.9 31.5H20.1C22.6698 31.5 24.4165 31.4976 25.7668 31.3873C27.0822 31.2799 27.7548 31.0851 28.224 30.846C29.3529 30.2707 30.2707 29.3529 30.846 28.224C31.0851 27.7548 31.2799 27.0822 31.3873 25.7668C31.4976 24.4165 31.5 22.6698 31.5 20.1V15.9C31.5 13.3303 31.4976 11.5834 31.3873 10.2331C31.2799 8.91786 31.0851 8.24526 30.846 7.77606C30.2707 6.64708 29.3529 5.7292 28.224 5.15395C27.7548 4.91488 27.0822 4.72011 25.7668 4.61265C24.4165 4.50234 22.6698 4.5 20.1 4.5Z" fill="#4F5665"/>
</svg>
