<svg width="88" height="18" viewBox="0 0 88 18" fill="none" xmlns="http://www.w3.org/2000/svg">
<path d="M0.587 17V0.899999H11.075V3.407H3.692V7.708H9.603V10.146H3.692V17H0.587ZM10.5343 17L16.4223 0.899999H19.9413L25.8063 17H22.5173L18.1703 4.442L13.8003 17H10.5343ZM13.1333 13.343L13.9613 10.928H22.1493L22.9543 13.343H13.1333ZM27.922 17V0.899999H31.027V14.585H38.088V17H27.922ZM46.5317 17.276C44.9217 17.276 43.534 16.931 42.3687 16.241C41.2187 15.5357 40.3293 14.562 39.7007 13.32C39.0873 12.0627 38.7807 10.6137 38.7807 8.973C38.7807 7.33233 39.0873 5.88333 39.7007 4.626C40.3293 3.36867 41.2187 2.38733 42.3687 1.682C43.534 0.976666 44.9217 0.624 46.5317 0.624C48.479 0.624 50.0737 1.107 51.3157 2.073C52.5577 3.039 53.332 4.40367 53.6387 6.167H50.2577C50.0583 5.30833 49.6367 4.64133 48.9927 4.166C48.364 3.67533 47.536 3.43 46.5087 3.43C45.558 3.43 44.7377 3.66 44.0477 4.12C43.373 4.56467 42.8517 5.201 42.4837 6.029C42.1157 6.84167 41.9317 7.823 41.9317 8.973C41.9317 10.1077 42.1157 11.089 42.4837 11.917C42.8517 12.745 43.373 13.3813 44.0477 13.826C44.7377 14.2707 45.558 14.493 46.5087 14.493C47.536 14.493 48.364 14.2707 48.9927 13.826C49.6213 13.366 50.0353 12.7297 50.2347 11.917H53.6387C53.332 13.5883 52.5577 14.8993 51.3157 15.85C50.0737 16.8007 48.479 17.276 46.5317 17.276ZM63.7191 17.276C62.1551 17.276 60.7751 16.9233 59.5791 16.218C58.3831 15.5127 57.4478 14.539 56.7731 13.297C56.0985 12.0397 55.7611 10.5907 55.7611 8.95C55.7611 7.30933 56.0985 5.868 56.7731 4.626C57.4478 3.36867 58.3831 2.38733 59.5791 1.682C60.7751 0.976666 62.1551 0.624 63.7191 0.624C65.2985 0.624 66.6861 0.976666 67.8821 1.682C69.0781 2.38733 70.0058 3.36867 70.6651 4.626C71.3398 5.868 71.6771 7.30933 71.6771 8.95C71.6771 10.5907 71.3398 12.0397 70.6651 13.297C70.0058 14.539 69.0781 15.5127 67.8821 16.218C66.6861 16.9233 65.2985 17.276 63.7191 17.276ZM63.7191 14.493C64.7005 14.493 65.5438 14.2707 66.2491 13.826C66.9698 13.366 67.5295 12.722 67.9281 11.894C68.3268 11.066 68.5261 10.0847 68.5261 8.95C68.5261 7.8 68.3268 6.81867 67.9281 6.006C67.5295 5.178 66.9698 4.54167 66.2491 4.097C65.5438 3.65233 64.7005 3.43 63.7191 3.43C62.7531 3.43 61.9098 3.65233 61.1891 4.097C60.4685 4.54167 59.9088 5.178 59.5101 6.006C59.1115 6.81867 58.9121 7.8 58.9121 8.95C58.9121 10.0847 59.1115 11.066 59.5101 11.894C59.9088 12.722 60.4685 13.366 61.1891 13.826C61.9098 14.2707 62.7531 14.493 63.7191 14.493ZM74.3263 17V0.899999H77.4313L84.8373 12.009V0.899999H87.9423V17H84.8373L77.4313 5.914V17H74.3263Z" fill="#0B132A"/>
</svg>
